<svg xmlns="http://www.w3.org/2000/svg" xmlns:xlink="http://www.w3.org/1999/xlink" version="1.1" enable-background="new 0 0 100 100" xml:space="preserve" width="47" height="72" style=""><rect id="backgroundrect" width="100%" height="100%" x="0" y="0" fill="none" stroke="none" class="" style=""/><g class="currentLayer" style=""><title>Layer 1</title><g id="svg_1" class="" fill-opacity="1" fill="#45a1ac"><path fill="#45a1ac" d="M0.7800012969970709,0 c-0.4200000000000001,0 -0.78,0.3600000000000001 -0.78,0.78 v10.5 c0,0.06000000000000002 0,0.12000000000000002 0,0.12000000000000002 c0,0.06000000000000002 0,0.12000000000000002 0,0.18000000000000005 v10.44 c0,0.6600000000000003 0.7200000000000002,1.02 1.26,0.6600000000000003 l12.42,-8.4 c0.9,-0.6000000000000002 0,-1.98 -0.9,-1.32 l-11.16,7.5600000000000005 v-8.94 c0,-0.06000000000000002 0,-0.12000000000000002 -0.06000000000000002,-0.18000000000000005 c0.06000000000000002,0 0.06000000000000002,-0.06000000000000002 0.06000000000000002,-0.12000000000000002 v-9 l11.16,7.62 c0.9,0.6000000000000002 1.8,-0.7200000000000002 0.9,-1.32 l-12.42,-8.46 C1.1400012969970703,0.06000000000000051 0.9600012969970706,0 0.7800012969970709,0 L0.7800012969970709,0 zM46.44100129699707,0 c-0.12100000000000002,0 -0.3010000000000001,0.06000000000000002 -0.4200000000000001,0.12000000000000002 l-12.422,8.46 c-0.9590000000000002,0.6000000000000002 0,1.92 0.9,1.32 l11.16,-7.62 v9 c0,0.06000000000000002 0,0.12000000000000002 0,0.12000000000000002 c0,0.06000000000000002 0,0.12000000000000002 0,0.18000000000000005 v8.94 l-11.16,-7.5600000000000005 c-0.9,-0.6600000000000003 -1.859,0.7200000000000002 -0.9,1.32 l12.422,8.4 c0.539,0.3600000000000001 1.26,0 1.26,-0.6600000000000003 V11.579999999999998 c0,-0.06000000000000002 0,-0.12000000000000002 0,-0.18000000000000005 c0,0 0,-0.06000000000000002 0,-0.12000000000000002 v-10.5 C47.281001296997076,0.35999999999999954 46.91900129699707,0 46.44100129699707,0 L46.44100129699707,0 zM23.40000129699707,2.3999999999999986 c-2.16,0 -3.9,1.6800000000000004 -4.08,3.84 h-2.4 c-1.1400000000000001,0 -2.04,0.9 -2.04,2.04 v6.3 c0,1.1400000000000001 0.9,2.04 2.04,2.04 h3.3 l-7.26,39.3 h-0.78 l0,0 c-1.86,0 -3.54,1.44 -3.9,3.3 L6.600001296997071,68.4 c-0.18000000000000005,0.9600000000000002 0.06000000000000002,1.859 0.6600000000000003,2.52 C7.800001296997067,71.58 8.64000129699707,72 9.600001296997071,72 h13.8 c0.12000000000000002,0 0.18000000000000005,0 0.24000000000000005,0 s0.12000000000000002,0 0.24000000000000005,0 h13.799 c0.9610000000000002,0 1.8010000000000002,-0.4200000000000001 2.342,-1.08 c0.6000000000000002,-0.6600000000000003 0.8400000000000002,-1.56 0.6580000000000003,-2.52 l-1.6800000000000004,-9.181 C38.64000129699707,57.36 36.96000129699707,55.92 35.04000129699707,55.92 H34.32000129699707 l-7.26,-39.3 h3.301 c1.139,0 2.1,-0.9 2.1,-2.04 v-6.3 c0,-1.1400000000000001 -0.9610000000000002,-2.04 -2.1,-2.04 h-2.34 c-0.18200000000000005,-2.16 -1.98,-3.84 -4.141,-3.84 H23.40000129699707 L23.40000129699707,2.3999999999999986 zM22.86000129699707,4.02 c0,0.06000000000000002 0,0.06000000000000002 0,0.12000000000000002 c0,0.3000000000000001 0,0.7200000000000002 0,1.1400000000000001 c0,0.4800000000000001 0,0.6000000000000002 0,0.9600000000000002 H20.940001296997067 C21.060001296997072,5.16 21.840001296997073,4.260000000000002 22.86000129699707,4.02 L22.86000129699707,4.02 zM24.480001296997074,4.079999999999998 c1.019,0.24000000000000005 1.7400000000000002,1.08 1.919,2.16 h-1.98 c0,-0.3600000000000001 0,-0.4800000000000001 0.06100000000000002,-0.9600000000000002 c0,-0.4200000000000001 0,-0.8400000000000002 0,-1.1400000000000001 C24.480001296997074,4.079999999999998 24.480001296997074,4.079999999999998 24.480001296997074,4.079999999999998 L24.480001296997074,4.079999999999998 zM16.92000129699707,7.800000000000001 h1.1400000000000001 V15 h-1.1400000000000001 c-0.3000000000000001,0 -0.4800000000000001,-0.18000000000000005 -0.4800000000000001,-0.4200000000000001 v-6.3 C16.440001296997067,7.98 16.620001296997067,7.800000000000001 16.92000129699707,7.800000000000001 L16.92000129699707,7.800000000000001 zM19.68000129699707,7.800000000000001 h0.24000000000000005 c0.12000000000000002,0.06000000000000002 0.24000000000000005,0.06000000000000002 0.3600000000000001,0 h0.9600000000000002 V15 h-0.06000000000000002 c-0.06000000000000002,0 -0.12000000000000002,0 -0.12000000000000002,0 h-1.3800000000000001 V7.800000000000001 L19.68000129699707,7.800000000000001 zM22.86000129699707,7.800000000000001 h1.56 V15 h-1.56 V7.800000000000001 L22.86000129699707,7.800000000000001 zM26.04000129699707,7.800000000000001 h1.02 c0.11900000000000004,0.06000000000000002 0.24000000000000005,0.06000000000000002 0.3590000000000001,0 h0.18000000000000005 V15 H26.22000129699707 c-0.06100000000000002,0 -0.06100000000000002,0 -0.12100000000000002,0 C26.04000129699707,15 26.04000129699707,15 26.04000129699707,15 V7.800000000000001 L26.04000129699707,7.800000000000001 zM29.22000129699707,7.800000000000001 h1.141 c0.2990000000000001,0 0.4790000000000001,0.18000000000000005 0.4790000000000001,0.4800000000000001 v6.3 c0,0.24000000000000005 -0.18000000000000005,0.4200000000000001 -0.4790000000000001,0.4200000000000001 H29.22000129699707 V7.800000000000001 L29.22000129699707,7.800000000000001 zM21.840001296997073,16.62 h3.601 L32.64000129699707,55.92 h-6.66 h-4.68 H14.64000129699707 L21.840001296997073,16.62 L21.840001296997073,16.62 zM12.18000129699707,57.540000000000006 h0.24000000000000005 l-3,12.84 c-0.4200000000000001,-0.06000000000000002 -0.7200000000000002,-0.18000000000000005 -0.9600000000000002,-0.4790000000000001 c-0.24000000000000005,-0.24000000000000005 -0.3600000000000001,-0.6600000000000003 -0.3000000000000001,-1.2 l1.6800000000000004,-9.181 C10.020001296997073,58.44 11.160001296997073,57.540000000000006 12.18000129699707,57.540000000000006 L12.18000129699707,57.540000000000006 L12.18000129699707,57.540000000000006 zM14.100001296997071,57.540000000000006 h1.62 L14.340001296997073,70.38 h-3.24 L14.100001296997071,57.540000000000006 L14.100001296997071,57.540000000000006 zM17.340001296997073,57.540000000000006 h1.86 l-0.6000000000000002,12.84 h-2.64 L17.340001296997073,57.540000000000006 L17.340001296997073,57.540000000000006 zM20.82000129699707,57.540000000000006 h0.4800000000000001 h1.56 v12.84 h-2.64 L20.82000129699707,57.540000000000006 L20.82000129699707,57.540000000000006 zM24.42000129699707,57.540000000000006 h1.56 h0.4800000000000001 l0.6000000000000002,12.84 h-2.64 V57.540000000000006 L24.42000129699707,57.540000000000006 zM28.07900129699707,57.540000000000006 h1.8610000000000002 l1.379,12.84 h-2.641 L28.07900129699707,57.540000000000006 L28.07900129699707,57.540000000000006 zM31.560001296997072,57.540000000000006 h1.6190000000000002 l3,12.84 h-3.238 L31.560001296997072,57.540000000000006 L31.560001296997072,57.540000000000006 zM34.86100129699707,57.540000000000006 h0.18000000000000005 c1.08,0 2.219,0.9 2.4,1.979 L39.06000129699707,68.7 c0.11900000000000004,0.54 0,0.8990000000000002 -0.24000000000000005,1.2 c-0.24000000000000005,0.3000000000000001 -0.539,0.4200000000000001 -0.9590000000000002,0.4790000000000001 L34.86100129699707,57.540000000000006 L34.86100129699707,57.540000000000006 z" id="svg_2"/></g></g></svg>